<svg xmlns="http://www.w3.org/2000/svg" width="100" height="69" viewBox="0 0 100 69"><path fill="#FFF" d="M0 0h100v69H0z"/><path fill="#BD3D44" d="M0 0h100v5.308H0V0zm0 10.615h100v5.308H0v-5.308zm0 10.616h100v5.308H0V21.23zm0 10.615h100v5.308H0v-5.308zm0 10.616h100v5.308H0v-5.308zm0 10.615h100v5.308H0v-5.308zm0 10.616h100V69H0v-5.308z"/><path fill="#192F5D" d="M0 0h52.44v37.154H0V0z"/><path fill="#FFF" d="M4.37 1.59l.477 1.469h1.544l-1.249.907.477 1.469-1.25-.908-1.248.908.477-1.469-1.25-.907h1.545L4.37 1.59zm8.74 0l.477 1.469h1.544l-1.249.907.477 1.469-1.249-.908-1.249.908.477-1.469-1.25-.907h1.545l.477-1.469zm8.74 0l.477 1.469h1.545l-1.25.907.478 1.469-1.25-.908-1.249.908.477-1.469-1.249-.907h1.544l.477-1.469zm8.74 0l.477 1.469h1.544l-1.249.907.477 1.469-1.249-.908-1.25.908.478-1.469-1.25-.907h1.545l.477-1.469zm8.74 0l.477 1.469h1.545l-1.25.907.478 1.469-1.25-.908-1.249.908.477-1.469-1.249-.907h1.544l.477-1.469zm8.74 0l.478 1.469h1.544l-1.25.907.478 1.469-1.25-.908-1.249.908.478-1.469-1.25-.907h1.545l.477-1.469zM8.74 5.306l.477 1.468h1.544l-1.249.908.477 1.468-1.249-.907-1.249.907.477-1.468-1.249-.908h1.544l.477-1.468zm8.74 0l.477 1.468h1.544l-1.249.908.477 1.468-1.249-.907-1.25.907.478-1.468-1.25-.908h1.545l.477-1.468zm8.74 0l.477 1.468h1.544l-1.249.908.477 1.468-1.249-.907-1.249.907.477-1.468-1.249-.908h1.544l.477-1.468zm8.74 0l.478 1.468h1.544l-1.25.908.478 1.468-1.25-.907-1.249.907.478-1.468-1.25-.908h1.545l.476-1.468zm8.74 0l.477 1.468h1.544l-1.249.908.477 1.468-1.249-.907-1.249.907.477-1.468-1.25-.908h1.545l.477-1.468zM4.37 9.021l.477 1.468h1.544l-1.249.908.477 1.469-1.25-.908-1.248.908.477-1.469-1.25-.908h1.545l.477-1.468zm8.74 0l.477 1.468h1.544l-1.249.908.477 1.469-1.249-.908-1.249.908.477-1.469-1.25-.908h1.545l.477-1.468zm8.74 0l.477 1.468h1.545l-1.25.908.478 1.469-1.25-.908-1.249.908.477-1.469-1.249-.908h1.544l.477-1.468zm8.74 0l.477 1.468h1.544l-1.249.908.477 1.469-1.249-.908-1.25.908.478-1.469-1.25-.908h1.545l.477-1.468zm8.74 0l.477 1.468h1.545l-1.25.908.478 1.469-1.25-.908-1.249.908.477-1.469-1.249-.908h1.544l.477-1.468zm8.74 0l.478 1.468h1.544l-1.25.908.478 1.469-1.25-.908-1.249.908.478-1.469-1.25-.908h1.545l.477-1.468zM8.74 12.736l.477 1.469h1.544l-1.249.907.477 1.469-1.249-.907-1.249.907.477-1.469-1.249-.907h1.544l.477-1.469zm8.74 0l.477 1.469h1.544l-1.249.907.477 1.469-1.249-.907-1.25.907.478-1.469-1.25-.907h1.545l.477-1.469zm8.74 0l.477 1.469h1.544l-1.249.907.477 1.469-1.249-.907-1.249.907.477-1.469-1.249-.907h1.544l.477-1.469zm8.74 0l.478 1.469h1.544l-1.25.907.478 1.469-1.25-.907-1.249.907.478-1.469-1.25-.907h1.544l.477-1.469zm8.74 0l.477 1.469h1.544l-1.249.907.477 1.469-1.249-.907-1.249.907.477-1.469-1.25-.907h1.545l.477-1.469zM4.37 16.452l.477 1.468h1.544l-1.249.908.477 1.468-1.25-.907-1.248.907.477-1.468-1.25-.908h1.545l.477-1.468zm8.74 0l.477 1.468h1.544l-1.249.908.477 1.468-1.249-.907-1.249.907.477-1.468-1.25-.908h1.545l.477-1.468zm8.74 0l.477 1.468h1.545l-1.25.908.478 1.468-1.25-.907-1.249.907.477-1.468-1.249-.908h1.544l.477-1.468zm8.74 0l.477 1.468h1.544l-1.249.908.477 1.468-1.249-.907-1.25.907.478-1.468-1.25-.908h1.545l.477-1.468zm8.74 0l.477 1.468h1.545l-1.25.908.478 1.468-1.25-.907-1.249.907.477-1.468-1.249-.908h1.544l.477-1.468zm8.74 0l.478 1.468h1.544l-1.25.908.478 1.468-1.25-.907-1.249.907.478-1.468-1.25-.908h1.545l.477-1.468zM8.74 20.167l.477 1.469h1.544l-1.249.907.477 1.469-1.249-.908-1.249.908.477-1.469-1.249-.907h1.544l.477-1.469zm8.74 0l.477 1.469h1.544l-1.249.907.477 1.469-1.249-.908-1.25.908.478-1.469-1.25-.907h1.545l.477-1.469zm8.74 0l.477 1.469h1.544l-1.249.907.477 1.469-1.249-.908-1.249.908.477-1.469-1.249-.907h1.544l.477-1.469zm8.74 0l.478 1.469h1.544l-1.25.907.478 1.469-1.25-.908-1.249.908.478-1.469-1.25-.907h1.544l.477-1.469zm8.74 0l.477 1.469h1.544l-1.249.907.477 1.469-1.249-.908-1.249.908.477-1.469-1.25-.907h1.545l.477-1.469zM4.37 23.883l.477 1.468h1.544l-1.249.908.477 1.468-1.25-.907-1.248.907.477-1.468-1.25-.908h1.545l.477-1.468zm8.74 0l.477 1.468h1.544l-1.249.908.477 1.468-1.249-.907-1.249.907.477-1.468-1.25-.908h1.545l.477-1.468zm8.74 0l.477 1.468h1.545l-1.25.908.478 1.468-1.25-.907-1.249.907.477-1.468-1.249-.908h1.544l.477-1.468zm8.74 0l.477 1.468h1.544l-1.249.908.477 1.468-1.249-.907-1.25.907.478-1.468-1.25-.908h1.545l.477-1.468zm8.74 0l.477 1.468h1.545l-1.25.908.478 1.468-1.25-.907-1.249.907.477-1.468-1.249-.908h1.544l.477-1.468zm8.74 0l.478 1.468h1.544l-1.25.908.478 1.468-1.25-.907-1.249.907.478-1.468-1.25-.908h1.545l.477-1.468zM8.74 27.598l.477 1.469h1.544l-1.249.907.477 1.469-1.249-.908-1.249.908.477-1.469-1.249-.907h1.544l.477-1.469zm8.74 0l.477 1.469h1.544l-1.249.907.477 1.469-1.249-.908-1.25.908.478-1.469-1.25-.907h1.545l.477-1.469zm8.74 0l.477 1.469h1.544l-1.249.907.477 1.469-1.249-.908-1.249.908.477-1.469-1.249-.907h1.544l.477-1.469zm8.74 0l.478 1.469h1.544l-1.25.907.478 1.469-1.25-.908-1.249.908.478-1.469-1.25-.907h1.544l.477-1.469zm8.74 0l.477 1.469h1.544l-1.249.907.477 1.469-1.249-.908-1.249.908.477-1.469-1.25-.907h1.545l.477-1.469zM4.37 31.314l.477 1.468h1.544l-1.249.908.477 1.468-1.25-.907-1.248.907.477-1.468-1.25-.908h1.545l.477-1.468zm8.74 0l.477 1.468h1.544l-1.249.908.477 1.468-1.249-.907-1.249.907.477-1.468-1.25-.908h1.545l.477-1.468zm8.74 0l.477 1.468h1.545l-1.25.908.478 1.468-1.25-.907-1.249.907.477-1.468-1.249-.908h1.544l.477-1.468zm8.74 0l.477 1.468h1.544l-1.249.908.477 1.468-1.249-.907-1.25.907.478-1.468-1.25-.908h1.545l.477-1.468zm8.74 0l.477 1.468h1.545l-1.25.908.478 1.468-1.25-.907-1.249.907.477-1.468-1.249-.908h1.544l.477-1.468zm8.74 0l.478 1.468h1.544l-1.25.908.478 1.468-1.25-.907-1.249.907.478-1.468-1.25-.908h1.545l.477-1.468z"/></svg>