<svg xmlns="http://www.w3.org/2000/svg" width="235" height="15" viewBox="0 0 235 15"><path fill="none" d="M0 0h235v15H0z"/><path d="M230.1 5.8h-3.6c-.8 0-1.3-.5-1.3-1.2s.6-1.1 1.3-1.1h6.5l1.5-3.3h-8c-3.3 0-5.2 2-5.2 4.6 0 2.8 1.8 4.4 4.7 4.4h3.6c.8 0 1.3.5 1.3 1.2s-.5 1.2-1.3 1.2h-7.8v3.3h7.8c3.3 0 5.2-1.9 5.2-4.7 0-2.8-1.7-4.4-4.7-4.4m-14.3 0h-3.6c-.8 0-1.3-.5-1.3-1.2s.6-1.1 1.3-1.1h6.5l1.5-3.3h-8c-3.3 0-5.2 2-5.2 4.6 0 2.8 1.8 4.4 4.7 4.4h3.6c.8 0 1.3.5 1.3 1.2s-.5 1.2-1.3 1.2h-7.8v3.3h7.8c3.3 0 5.2-1.9 5.2-4.7 0-2.8-1.7-4.4-4.7-4.4m-22.8 9h12.3v-3.3h-8.4V9.1h8.2V5.8h-8.2V3.5h8.4V.2H193zm-7.7-8.4h-4.1V3.5h4.1c1.2 0 1.8.7 1.8 1.5-.1.8-.7 1.4-1.8 1.4m5.7-1.5c0-2.8-2-4.7-5.2-4.7h-8.4v14.6h3.9V9.7h1.4l4.4 5.1h4.8l-4.8-5.3c2.4-.5 3.9-2.3 3.9-4.6m-21 1.8h-4.2V3.5h4.2c1.2 0 1.8.7 1.8 1.6-.1.9-.7 1.6-1.8 1.6m.4-6.5h-8.5v14.6h3.9V10h4.5c3.3 0 5.3-2.1 5.3-4.9 0-2.9-2-4.9-5.2-4.9m-9.2 0h-5l-3.8 4.4-3.8-4.4h-5.1l6.4 7.2-6.5 7.4h5l3.9-4.6 4 4.6h5.1l-6.6-7.5zm-30.7 14.6h12.3v-3.3h-8.4V9.1h8.2V5.8h-8.2V3.5h8.4V.2h-12.3zm-13.7-5.7l-6-8.9h-4.9v14.6h3.9V5.5l6.1 9.3h4.7V.2h-3.8zm-22.7-.5l2-4.9 2 4.9h-4zM93.7.2l-6.4 14.6h4.3l1.2-3h6.8l1.3 3h4.4L98.7.2h-5zM80.9 7.6v-.3c0-2.2 1.2-3.7 3.7-3.7H89V.2h-4.7C79.5.2 77 3.3 77 7.3v.3c0 4.5 2.8 7.1 7.1 7.1h1.3l1.6-3.3h-2.3c-2.3.1-3.8-1.2-3.8-3.8M71.1.2v14.6H75V.2zm-7.8 6.2h-4.1V3.5h4.1c1.2 0 1.8.7 1.8 1.5s-.6 1.4-1.8 1.4M69 4.9c0-2.8-2-4.7-5.2-4.7h-8.4v14.6h3.9V9.7h1.4l4.4 5.1H70l-4.8-5.3C67.6 9 69 7.2 69 4.9m-28.5 9.9h12.3v-3.3h-8.4V9.1h8.2V5.8h-8.2V3.5h8.4V.2H40.5zM28.1 9.4L24.8.2h-6.1v14.6h3.8V4.3l3.8 10.5h3.5l3.9-10.5v10.5h3.8V.2h-6.1zM6.9 8.6l2-4.9 2 4.9h-4zM6.4.2L0 14.8h4.3l1.2-3h6.8l1.3 3H18L11.5.2H6.4z" fill="#006fcf"/></svg>